<svg xmlns="http://www.w3.org/2000/svg" viewBox="0 0 1200 800" role="img" aria-label="MarketPlace placeholder cover">
  <rect width="1200" height="800" fill="#F7F5F2"/>
  <g transform="translate(80,80)">
    <text x="0" y="0" font-family="Inter, ui-sans-serif, system-ui, sans-serif" font-size="14" letter-spacing="2.4" fill="#8A7F70">PERSONAL  ·  MARKETPLACE</text>
  </g>
  <g transform="translate(80,180)">
    <text x="0" y="0" font-family="Georgia, 'Times New Roman', serif" font-size="92" fill="#2B2A27" font-weight="400">Market</text>
    <text x="0" y="100" font-family="Georgia, 'Times New Roman', serif" font-style="italic" font-size="92" fill="#B5651D" font-weight="400">Place.</text>
  </g>
  <g transform="translate(80,470)">
    <text x="0" y="0" font-family="Inter, ui-sans-serif, system-ui, sans-serif" font-size="15" fill="#5A5550">A community for small sellers · catalogs · checkout · search</text>
  </g>
  <g transform="translate(720,160)">
    <g>
      <rect x="0" y="0" width="180" height="220" fill="#FFFFFF" stroke="#E8E2D8" stroke-width="1.5" rx="8"/>
      <rect x="14" y="14" width="152" height="120" fill="#E8E2D8" rx="4"/>
      <circle cx="38" cy="60" r="14" fill="#B5651D" opacity="0.7"/>
      <rect x="14" y="150" width="130" height="10" fill="#2B2A27" rx="2"/>
      <rect x="14" y="170" width="80" height="8" fill="#8A7F70" opacity="0.6" rx="2"/>
      <rect x="14" y="190" width="50" height="20" fill="#2B2A27" rx="10"/>
    </g>
    <g transform="translate(200,40)">
      <rect x="0" y="0" width="180" height="220" fill="#FFFFFF" stroke="#E8E2D8" stroke-width="1.5" rx="8"/>
      <rect x="14" y="14" width="152" height="120" fill="#F7F5F2" rx="4"/>
      <rect x="50" y="52" width="52" height="52" fill="#2B2A27" rx="4"/>
      <rect x="14" y="150" width="130" height="10" fill="#2B2A27" rx="2"/>
      <rect x="14" y="170" width="100" height="8" fill="#8A7F70" opacity="0.6" rx="2"/>
      <rect x="14" y="190" width="50" height="20" fill="#B5651D" rx="10"/>
    </g>
  </g>
  <g transform="translate(80,720)">
    <text x="0" y="0" font-family="ui-monospace, SFMono-Regular, Menlo, monospace" font-size="13" fill="#8A7F70">placeholder · swap with screenshot</text>
  </g>
</svg>
