<svg xmlns="http://www.w3.org/2000/svg" viewBox="0 0 1200 800" role="img" aria-label="Social placeholder cover">
  <rect width="1200" height="800" fill="#F7F5F2"/>
  <g transform="translate(80,80)">
    <text x="0" y="0" font-family="Inter, ui-sans-serif, system-ui, sans-serif" font-size="14" letter-spacing="2.4" fill="#8A7F70">PERSONAL  ·  SOCIAL</text>
  </g>
  <g transform="translate(80,200)">
    <text x="0" y="0" font-family="Georgia, 'Times New Roman', serif" font-size="92" fill="#2B2A27" font-weight="400">Social.</text>
  </g>
  <g transform="translate(80,310)">
    <text x="0" y="0" font-family="Georgia, 'Times New Roman', serif" font-style="italic" font-size="42" fill="#8A7F70" font-weight="400">conversations, quietly designed.</text>
  </g>
  <g transform="translate(80,470)">
    <text x="0" y="0" font-family="Inter, ui-sans-serif, system-ui, sans-serif" font-size="15" fill="#5A5550">Feed · messaging · profiles · realtime</text>
  </g>
  <g transform="translate(760,160)">
    <g>
      <rect x="0" y="0" width="220" height="64" fill="#FFFFFF" stroke="#E8E2D8" stroke-width="1.5" rx="14"/>
      <circle cx="32" cy="32" r="12" fill="#B5651D" opacity="0.8"/>
      <rect x="56" y="20" width="140" height="8" fill="#2B2A27" rx="2"/>
      <rect x="56" y="36" width="100" height="6" fill="#8A7F70" opacity="0.6" rx="2"/>
    </g>
    <g transform="translate(50,90)">
      <rect x="0" y="0" width="270" height="64" fill="#2B2A27" rx="14"/>
      <rect x="20" y="20" width="180" height="8" fill="#F7F5F2" rx="2"/>
      <rect x="20" y="36" width="120" height="6" fill="#F7F5F2" opacity="0.5" rx="2"/>
    </g>
    <g transform="translate(0,180)">
      <rect x="0" y="0" width="250" height="64" fill="#FFFFFF" stroke="#E8E2D8" stroke-width="1.5" rx="14"/>
      <circle cx="32" cy="32" r="12" fill="#8A7F70" opacity="0.7"/>
      <rect x="56" y="20" width="160" height="8" fill="#2B2A27" rx="2"/>
      <rect x="56" y="36" width="110" height="6" fill="#8A7F70" opacity="0.6" rx="2"/>
    </g>
    <g transform="translate(80,270)">
      <rect x="0" y="0" width="240" height="64" fill="#2B2A27" rx="14"/>
      <rect x="20" y="20" width="160" height="8" fill="#F7F5F2" rx="2"/>
      <rect x="20" y="36" width="90" height="6" fill="#F7F5F2" opacity="0.5" rx="2"/>
    </g>
  </g>
  <g transform="translate(80,720)">
    <text x="0" y="0" font-family="ui-monospace, SFMono-Regular, Menlo, monospace" font-size="13" fill="#8A7F70">placeholder · swap with screenshot</text>
  </g>
</svg>
